<svg width="38" height="38" viewBox="0 0 38 38" fill="none" xmlns="http://www.w3.org/2000/svg">
<path d="M38.0022 15.1364V22.2517C37.853 22.4892 37.6445 22.6748 37.3706 22.6362C37.0968 22.5976 36.8897 22.3549 36.8897 22.0357L36.8867 15.4377C36.8867 15.1646 36.6418 14.9196 36.3561 14.9196H21.1182L21.1011 16.6274L23.2342 16.6415C24.1419 16.6475 24.8299 17.3867 24.8299 18.2832L24.8314 21.4264C24.8314 22.5026 23.9593 23.2514 22.8275 23.0934L22.8126 24.9347C22.8096 25.3155 22.6419 25.6272 22.3064 25.7563C21.997 25.8758 21.6288 25.7971 21.3928 25.5099L19.426 23.1127L15.655 23.1052C14.8163 23.1038 14.0696 22.4291 14.0622 21.5793L14.04 19.0046L12.0271 19.0084C11.0289 19.0098 10.3171 18.2832 10.3186 17.2887L10.3209 14.9211L1.71371 14.9196C1.35004 14.9196 1.11477 15.1423 1.11477 15.5193V30.8566C1.14594 31.175 1.34484 31.3561 1.63652 31.3925L5.46324 31.3873C5.7475 29.9037 6.88973 28.8787 8.42902 28.7095C7.13465 27.28 7.23113 25.1967 8.54926 23.8667C9.86738 22.5367 12.0487 22.5367 13.375 23.8348C14.7012 25.1329 14.846 27.2504 13.5316 28.7073C15.0775 28.8832 16.2079 29.9126 16.4966 31.3895H21.5056C21.7921 29.9096 22.9262 28.8846 24.4707 28.7073C23.1726 27.2667 23.2869 25.19 24.5864 23.8734C25.8704 22.5731 28.045 22.5352 29.3728 23.7918C30.7273 25.0735 30.9292 27.1925 29.5806 28.6969C31.065 28.8846 32.2518 29.8643 32.5368 31.3873L36.2937 31.391C36.6455 31.397 36.8919 31.1513 36.8867 30.7928V24.7855C36.8867 24.4716 37.03 24.2259 37.3298 24.1525C37.5807 24.0909 37.8315 24.272 38 24.4991V33.9011C37.7336 34.667 37.1517 35.2036 36.293 35.2036L32.6043 35.2021L32.5895 36.498C32.5798 37.35 31.9489 37.785 31.1659 37.7857L22.941 37.7879C22.1372 37.7879 21.4641 37.3946 21.4544 36.495L21.4411 35.2088L20.2573 35.1947C19.9233 35.191 19.7058 34.9171 19.7162 34.6225C19.7259 34.3479 19.947 34.0978 20.2751 34.0941L21.4492 34.0807V32.5058H16.5515V34.0807L17.6507 34.0941C17.9758 34.0978 18.1999 34.3486 18.2081 34.6203C18.217 34.9164 18.001 35.1903 17.6685 35.194L16.5589 35.2088L16.5456 36.4943C16.5367 37.3946 15.8628 37.7879 15.059 37.7872L6.83406 37.7857C6.05105 37.7857 5.4202 37.3508 5.41055 36.498L5.3957 35.2021L1.70703 35.2044C0.849062 35.2044 0.276094 34.6737 0 33.913V15.1356C0.238242 14.3504 0.835703 13.8027 1.70555 13.8034L5.40387 13.8049L5.4098 9.12836C5.41203 7.39906 6.65668 6.01785 8.43348 5.84047C7.11906 4.36277 7.23633 2.22453 8.62051 0.935352C9.9891 -0.338984 12.0962 -0.318203 13.444 1.04074C14.7205 2.3277 14.7963 4.40879 13.5286 5.83824C15.2393 6.02082 16.5218 7.31594 16.5322 8.97621L16.5552 12.5239L19.5225 12.5313C20.2647 12.5328 20.8636 13.0805 21.0529 13.744C21.1471 13.813 21.3876 13.8138 21.4485 13.7522L21.4611 9.05191C21.4655 7.36047 22.7288 6.02379 24.4714 5.83973C23.1874 4.39395 23.2832 2.28391 24.5939 1.00289C25.9647 -0.336015 28.071 -0.320429 29.4196 0.973946C30.7703 2.27055 30.8631 4.3791 29.5688 5.84047C31.301 6.01637 32.5783 7.3523 32.5828 9.05414L32.5961 13.8027L36.3694 13.8086C37.2096 13.8101 37.7655 14.3986 38.0007 15.1356L38.0022 15.1364ZM13.3341 3.47215C13.3341 2.17184 12.2802 1.11793 10.9799 1.11793C9.67961 1.11793 8.6257 2.17184 8.6257 3.47215C8.6257 4.77246 9.67961 5.82637 10.9799 5.82637C12.2802 5.82637 13.3341 4.77246 13.3341 3.47215ZM29.3795 3.47215C29.3795 2.17184 28.3256 1.11793 27.0253 1.11793C25.725 1.11793 24.6711 2.17184 24.6711 3.47215C24.6711 4.77246 25.725 5.82637 27.0253 5.82637C28.3256 5.82637 29.3795 4.77246 29.3795 3.47215ZM12.3322 12.5291L12.3396 10.612C12.3411 10.255 12.586 9.96481 12.8836 9.86684C13.1812 9.76887 13.5442 9.85942 13.7654 10.1303L15.4375 12.1773L15.4301 9.04672C15.4271 7.87184 14.4578 6.95227 13.2881 6.95227H8.6873C7.46418 6.95078 6.52234 7.9082 6.52234 9.12539V13.8012L7.80559 13.8019V10.4576C7.80559 10.1051 8.03344 9.83344 8.35332 9.82973C8.69769 9.82527 8.91961 10.0969 8.91961 10.4561V13.8019H10.3684C10.5866 12.8593 11.4022 12.4422 12.3322 12.5291ZM29.0856 10.4161C29.0952 10.045 29.3483 9.82676 29.6534 9.82973C29.9191 9.83195 30.1952 10.068 30.1952 10.3856L30.1996 13.8019L31.4814 13.7989L31.4643 8.97398C31.4606 7.81691 30.4445 6.95004 29.3223 6.95004L24.7171 6.95152C23.5043 6.95152 22.5677 7.9134 22.5662 9.12242L22.5625 13.8027L23.8465 13.8012L23.8517 10.3982C23.8517 10.0732 24.1107 9.83641 24.3831 9.82899C24.6837 9.82082 24.9568 10.0464 24.9583 10.3827L24.9679 13.8049L29.0826 13.8027L29.0848 10.4146L29.0856 10.4161ZM14.0986 17.8832C14.302 17.1017 14.9246 16.64 15.6616 16.6386L19.9886 16.6319L19.9856 14.0943C19.9856 13.8286 19.6917 13.6416 19.4535 13.6438L15.8843 13.6423C15.4642 13.6423 15.0753 13.4805 14.8163 13.1681L13.4759 11.5523L13.441 12.7666C13.4277 13.2319 13.0855 13.6164 12.6046 13.6305L11.9448 13.6498C11.6679 13.6579 11.4386 13.8747 11.4386 14.1686V17.3674C11.4386 17.6413 11.6716 17.8914 11.9485 17.8899L14.1008 17.8832H14.0986ZM21.7283 22.7594C21.7461 22.3504 22.1387 22.0224 22.5269 22.009L23.249 21.9845C23.4591 21.9771 23.7114 21.7686 23.7114 21.5273L23.7129 18.2476C23.7129 17.9901 23.4843 17.7504 23.2149 17.7504L15.7396 17.7459C15.4241 17.7459 15.1636 17.9426 15.1636 18.2691V21.5103C15.1644 21.7545 15.413 21.9905 15.655 21.9912L19.3459 21.9964C19.7311 21.9964 20.1073 22.1909 20.3441 22.4766L21.6696 24.0745L21.7283 22.7594ZM13.3341 26.3456C13.3341 25.0453 12.2802 23.9914 10.9799 23.9914C9.67961 23.9914 8.6257 25.0453 8.6257 26.3456C8.6257 27.6459 9.67961 28.6998 10.9799 28.6998C12.2802 28.6998 13.3341 27.6459 13.3341 26.3456ZM29.3795 26.3456C29.3795 25.0453 28.3256 23.9914 27.0253 23.9914C25.725 23.9914 24.6711 25.0453 24.6711 26.3456C24.6711 27.6459 25.725 28.6998 27.0253 28.6998C28.3256 28.6998 29.3795 27.6459 29.3795 26.3456ZM13.0402 36.6732V33.2435C13.0773 32.9088 13.303 32.695 13.6229 32.7047C13.8774 32.7121 14.1498 32.9377 14.1505 33.2591L14.1565 36.6754L15.4353 36.6524L15.4434 32.0575C15.4457 30.827 14.5439 29.8265 13.2844 29.8257L8.68582 29.8243C7.47457 29.8243 6.52383 30.7735 6.52383 31.9825V36.6546L7.80336 36.6695L7.81004 33.2457C7.81004 32.8932 8.13512 32.675 8.42383 32.7069C8.72961 32.7403 8.9159 32.983 8.91664 33.3185L8.92629 36.6798L13.0402 36.6732ZM29.0848 36.6732V33.3162C29.0811 32.96 29.3097 32.7039 29.6541 32.7054C29.9035 32.7062 30.1944 32.9236 30.1952 33.2457L30.2011 36.6724L31.4777 36.6553L31.4873 32.0582C31.4895 30.8188 30.5848 29.8235 29.3157 29.8243L24.7178 29.8257C23.5162 29.8257 22.5692 30.7817 22.5684 31.9818L22.567 36.6516L23.8487 36.6746L23.8554 33.2598C23.8554 32.9029 24.1649 32.6839 24.4603 32.7084C24.7712 32.7336 24.9612 32.9808 24.962 33.3207L24.9709 36.6806L29.0856 36.6739L29.0848 36.6732ZM5.40906 34.0874L5.40535 32.508H2.15457C1.79906 32.508 1.47324 32.4835 1.11477 32.4471L1.11773 33.553C1.11848 33.818 1.34559 34.0896 1.63281 34.0896L5.40906 34.0874ZM36.3368 34.0889C36.6663 34.0889 36.8845 33.8239 36.886 33.5493L36.8904 32.4353C36.6923 32.465 36.4867 32.5043 36.3011 32.505L32.5991 32.5095V34.0881L36.3375 34.0896L36.3368 34.0889Z" fill="white"/>
</svg>
