<svg width="42" height="36" viewBox="0 0 42 36" fill="none" xmlns="http://www.w3.org/2000/svg">
<path d="M42 4.95151V6.48968C41.9475 6.56745 41.9475 6.723 41.93 6.90446C41.44 11.2165 38.9988 15.0446 35.21 17.3173V25.9328C35.21 26.5204 34.8687 26.9525 34.3875 27.1426C33.88 27.3327 33.285 27.2204 32.9438 26.7796L31.8412 25.4057L30.765 26.7451C30.4325 27.1512 29.9075 27.3241 29.3913 27.1771C28.9625 27.0562 28.4812 26.65 28.4812 26.097L28.455 21.206C25.8475 23.8848 22.7412 24.7835 19.145 24.2564V28.0672H22.855V25.7772C22.8638 25.302 23.2312 24.965 23.6687 24.965C24.1062 24.965 24.4737 25.302 24.4737 25.7772V28.0586H26.425C28.8488 28.0586 30.7912 29.9424 30.7912 32.3447V34.4532C30.7912 35.3346 30.1087 36 29.1987 36H12.81C11.8913 36 11.2262 35.3346 11.2262 34.4532V32.4225C11.2087 30.0029 13.125 28.0413 15.5925 28.0672H17.535V23.8156C15.96 23.2712 14.7087 22.3639 13.545 21.1887V26.0192C13.5187 26.555 13.1775 26.9698 12.7312 27.1426C12.285 27.3154 11.6637 27.2463 11.3313 26.8401L10.1675 25.4143L9.1 26.7451C8.75875 27.1771 8.19875 27.3413 7.67375 27.1599C7.2275 27.0043 6.8075 26.5895 6.8075 26.0192V17.3346C3.045 15.0706 0.55125 11.2424 0.07 6.89582C0.0525 6.723 0.04375 6.56745 0 6.48104V4.94287C0.35 3.57753 1.42625 2.44551 2.94875 2.43687L7.91 2.41095C7.74375 1.11474 8.6275 0 9.93125 0H31.9725C33.3113 0 34.2563 1.03697 34.0812 2.41959H38.8763C40.4688 2.41959 41.6325 3.48248 41.9913 4.94287L42 4.95151ZM32.4888 2.03937C32.4888 1.79741 32.3138 1.64186 32.06 1.59866H9.94C9.68625 1.64186 9.5025 1.79741 9.51125 2.03937C9.6425 6.73164 10.3425 12.1411 12.3288 16.4273C14 20.0221 16.73 22.8132 20.9912 22.8046C30.555 22.796 32.2875 9.03024 32.48 2.03937H32.4888ZM6.53625 11.1733C6.825 11.5881 6.7025 12.072 6.3525 12.314C6.0025 12.5559 5.53 12.5041 5.25 12.1411C3.9025 10.4129 3.0975 8.35622 2.94875 6.16131C2.91375 5.68603 3.29875 5.31445 3.7625 5.31445H8.05L7.9625 4.0096H2.87875C2.10875 4.14786 1.61 4.72684 1.61875 5.5132C1.6625 9.42775 3.56125 13.0831 6.78125 15.3644L6.8075 13.3509C6.8075 13.0485 7.02625 12.7547 7.28 12.651C7.56 12.53 7.88375 12.5905 8.1375 12.7806C8.58375 13.109 8.995 13.4114 9.555 13.6534C8.925 11.3634 8.49625 9.20307 8.225 6.91311H4.68125C4.90875 8.4772 5.565 9.89438 6.53625 11.1647V11.1733ZM35.1838 13.7744L35.2275 15.373C38.4562 13.0571 40.3375 9.42775 40.3813 5.52184C40.39 4.64906 39.7425 4.01824 38.8763 4.01824H34.02L33.9325 5.32309H38.1413C38.6312 5.32309 39.0688 5.63418 39.0338 6.16995C38.8413 9.13394 37.4588 11.8214 35.175 13.7744H35.1838ZM33.775 6.91311C33.5212 9.28084 33.0575 11.4671 32.445 13.7052C35.1138 12.2708 36.89 9.78204 37.345 6.91311H33.775ZM11.9087 24.9736V19.0456C11.27 17.9827 10.7625 16.9112 10.2812 15.7792L8.40875 14.9323V24.9217C9.05625 24.4119 9.4325 23.3144 10.1237 23.2972C10.3862 23.2972 10.6575 23.4354 10.8237 23.6428L11.9087 24.9736ZM31.2287 23.591C31.5875 23.1589 32.2 23.2453 32.5063 23.6342C32.8475 24.0662 33.1187 24.4292 33.5737 24.9131V14.9323L31.71 15.7878C31.2375 16.9198 30.73 17.9914 30.0825 19.0542V24.9736L31.2287 23.5996V23.591ZM29.1638 34.3841V32.2669C29.12 30.7633 27.9388 29.6399 26.4075 29.6399H15.5925C14.035 29.6399 12.8187 30.7979 12.8275 32.3361L12.845 34.3841H29.1638Z" fill="white"/>
<path d="M21.0088 15.4162L18.8125 16.5482C18.3312 16.7988 17.7887 16.7902 17.325 16.4791C16.94 16.2199 16.6338 15.71 16.73 15.157L17.1588 12.6596L15.4 10.9659C14.9625 10.5425 14.8313 9.97215 15.0413 9.41911C15.2513 8.86606 15.7238 8.61546 16.3363 8.52904L18.6287 8.20931L19.6612 6.13538C19.9325 5.59097 20.37 5.22804 20.965 5.21075C21.595 5.19347 22.0588 5.56505 22.3475 6.13538L23.38 8.20931L25.8125 8.55497C26.3638 8.63274 26.7837 8.9784 26.9587 9.41911C27.16 9.94623 27.055 10.5252 26.6438 10.9227L24.8412 12.6596L25.2613 15.0792C25.3488 15.615 25.1475 16.1075 24.7712 16.41C24.3512 16.747 23.7563 16.8421 23.2487 16.5828L21.0088 15.4249V15.4162ZM21.7525 13.999L23.5813 14.9409L23.2312 12.7979C23.1612 12.3572 23.3188 11.9165 23.6338 11.6054L25.1825 10.0931L22.9425 9.74748C22.5575 9.68699 22.1725 9.40182 22.0063 9.05617L21 7.07729L19.9675 9.10802C19.7838 9.46231 19.3725 9.68699 18.9963 9.76476L16.8263 10.0931L18.4187 11.6486C18.7162 11.9424 18.8387 12.3917 18.7775 12.7979L18.4275 14.9409L20.195 14.0336C20.7113 13.7744 21.2013 13.7139 21.7525 13.999Z" fill="white"/>
</svg>
