<svg width="38" height="32" viewBox="0 0 38 32" fill="none" xmlns="http://www.w3.org/2000/svg">
<path d="M38 16.9136V17.3401C37.8684 17.541 37.6754 17.8379 37.4112 17.8507L36.5097 17.8962V29.7871C37.332 29.8653 37.5814 29.6188 38 30.3442V30.7707C37.8308 30.9914 37.6675 31.2873 37.3033 31.2873H0.696667C0.336458 31.2873 0.178125 30.9944 0 30.7816V30.3363C0.436406 29.6188 0.650156 29.8653 1.49031 29.7871V17.9032C0.668958 17.7824 0.477969 18.0951 0 17.349V16.9037C0.159323 16.6929 0.353281 16.397 0.662031 16.396L3.7238 16.3851C3.73964 14.4238 4.70349 12.694 6.3551 11.6441C5.77917 10.51 5.83755 9.24629 6.52135 8.20525C7.13094 7.27702 8.20859 6.67239 9.41786 6.70702C9.8899 5.99452 10.4599 5.41364 11.1991 4.93567C10.4431 3.48395 10.8063 1.74525 12.0601 0.736868C13.296 -0.256673 15.0803 -0.248756 16.3054 0.78239C17.5047 1.79275 17.858 3.49484 17.1099 4.93567C17.8254 5.40572 18.3706 5.93119 18.8258 6.62192C18.8902 6.7189 19.1059 6.7189 19.1702 6.62192C19.6254 5.93218 20.1727 5.4077 20.8861 4.93567C20.1261 3.47505 20.5042 1.74723 21.7342 0.747754C22.9653 -0.252715 24.7267 -0.242819 25.9399 0.738848C27.1789 1.7413 27.5609 3.46317 26.7989 4.92874C27.5134 5.40671 28.1052 5.97869 28.5772 6.70801C29.8092 6.66942 30.8997 7.2988 31.5044 8.25077C32.1644 9.28984 32.207 10.5288 31.6429 11.646C33.2935 12.6999 34.2554 14.4238 34.2752 16.3881L37.2628 16.3931C37.62 16.3931 37.8318 16.6494 37.999 16.9156L38 16.9136ZM16.0194 3.34541C16.0194 2.31624 15.1852 1.48202 14.156 1.48202C13.1268 1.48202 12.2926 2.31624 12.2926 3.34541C12.2926 4.37458 13.1268 5.2088 14.156 5.2088C15.1852 5.2088 16.0194 4.37458 16.0194 3.34541ZM25.7074 3.34541C25.7074 2.31624 24.8732 1.48202 23.844 1.48202C22.8148 1.48202 21.9806 2.31624 21.9806 3.34541C21.9806 4.37458 22.8148 5.2088 23.844 5.2088C24.8732 5.2088 25.7074 4.37458 25.7074 3.34541ZM16.0451 11.6332C15.1812 9.95385 15.7928 8.04692 17.3563 7.1276C16.9902 6.67635 16.5706 6.31119 16.0837 6.0826C14.8863 6.90692 13.4059 6.89505 12.2194 6.07864C11.7285 6.33494 11.2862 6.68723 10.9656 7.13947C12.5875 8.09145 13.0932 10.036 12.2649 11.646C13.0724 12.1507 13.6652 12.794 14.154 13.5846C14.6498 12.7643 15.2614 12.1527 16.0451 11.6332ZM25.7331 11.6302C24.8732 9.96176 25.4719 8.05286 27.0453 7.1276C26.6693 6.66348 26.2596 6.32109 25.7796 6.07666C24.5783 6.90989 23.085 6.89109 21.9005 6.07468C21.3997 6.35176 20.9772 6.69317 20.6496 7.13353C22.2735 8.08551 22.7802 10.03 21.9549 11.6549C22.7753 12.1517 23.3453 12.794 23.845 13.5846C24.3299 12.7653 24.9603 12.1497 25.7331 11.6302ZM11.1754 10.0528C11.1754 9.02364 10.3411 8.18942 9.31198 8.18942C8.28281 8.18942 7.44859 9.02364 7.44859 10.0528C7.44859 11.082 8.28281 11.9162 9.31198 11.9162C10.3411 11.9162 11.1754 11.082 11.1754 10.0528ZM20.8634 10.0518C20.8634 9.02265 20.0292 8.18843 19 8.18843C17.9708 8.18843 17.1366 9.02265 17.1366 10.0518C17.1366 11.081 17.9708 11.9152 19 11.9152C20.0292 11.9152 20.8634 11.081 20.8634 10.0518ZM30.5514 10.0528C30.5514 9.02364 29.7172 8.18942 28.688 8.18942C27.6589 8.18942 26.8246 9.02364 26.8246 10.0528C26.8246 11.082 27.6589 11.9162 28.688 11.9162C29.7172 11.9162 30.5514 11.082 30.5514 10.0528ZM11.2585 12.7811C10.0205 13.6311 8.54604 13.5866 7.35854 12.7821C6.01766 13.5154 5.21807 14.8651 5.21214 16.3891H13.4049C13.4207 14.9126 12.6202 13.5173 11.2585 12.7811ZM20.9346 12.7841C19.7036 13.6311 18.237 13.5866 17.0535 12.7831C15.7255 13.4886 14.9002 14.8642 14.9011 16.3901H23.0989C23.0949 14.8701 22.2765 13.4787 20.9346 12.7841ZM30.6335 12.7801C29.3946 13.6321 27.9191 13.5846 26.7326 12.7801C25.3917 13.5183 24.5951 14.8651 24.5872 16.3881H32.778C32.7988 14.9117 31.9922 13.5154 30.6335 12.7801ZM35.0253 17.8735H2.97469V29.8029H35.0253V17.8735Z" fill="url(#paint0_linear_260_275)"/>
<path d="M12.3371 27.5625L6.32443 27.5596C5.92958 27.5596 5.59115 27.23 5.59016 26.8312L5.5862 20.9125C5.5862 20.4425 5.91474 20.1139 6.38479 20.1139H12.2461C12.6686 20.1139 13.0358 20.4128 13.0358 20.8551V26.8302C13.0358 27.2221 12.733 27.5071 12.3371 27.5625ZM11.5524 21.5993H7.07255V26.0782H11.5524V21.5993Z" fill="url(#paint1_linear_260_275)"/>
<path d="M31.7062 27.5625L25.6945 27.5595C25.3056 27.5595 24.9642 27.225 24.9642 26.8312V20.8531C24.9642 20.4128 25.3314 20.1129 25.7539 20.1129H31.6152C32.0843 20.1129 32.4138 20.4405 32.4128 20.9125L32.4089 26.8292C32.4089 27.2241 32.107 27.512 31.7062 27.5625ZM30.9274 21.5993H26.4476V26.0781H30.9274V21.5993Z" fill="url(#paint2_linear_260_275)"/>
<path d="M22.04 27.5625H15.9907C15.5602 27.5239 15.2772 27.2082 15.2772 26.7728V20.9115C15.2772 20.4662 15.582 20.1149 16.0402 20.1149H21.9589C22.417 20.1149 22.7228 20.4652 22.7228 20.9115V26.7718C22.7228 27.1825 22.4764 27.4952 22.04 27.5625ZM21.2384 21.5993H16.7616V26.0781H21.2384V21.5993Z" fill="url(#paint3_linear_260_275)"/>
<defs>
<linearGradient id="paint0_linear_260_275" x1="28.1833" y1="28.9407" x2="8.61546" y2="0.661996" gradientUnits="userSpaceOnUse">
<stop offset="0.665" stop-color="#F9F8F6"/>
</linearGradient>
<linearGradient id="paint1_linear_260_275" x1="28.1833" y1="28.9407" x2="8.61546" y2="0.661996" gradientUnits="userSpaceOnUse">
<stop offset="0.665" stop-color="#F9F8F6"/>
</linearGradient>
<linearGradient id="paint2_linear_260_275" x1="28.1833" y1="28.9407" x2="8.61546" y2="0.661996" gradientUnits="userSpaceOnUse">
<stop offset="0.665" stop-color="#F9F8F6"/>
</linearGradient>
<linearGradient id="paint3_linear_260_275" x1="28.1833" y1="28.9407" x2="8.61546" y2="0.661996" gradientUnits="userSpaceOnUse">
<stop offset="0.665" stop-color="#F9F8F6"/>
</linearGradient>
</defs>
</svg>
