<svg width="1242" height="716" viewBox="0 0 1242 716" fill="none" xmlns="http://www.w3.org/2000/svg">
<line x1="69.5" y1="2.18557e-08" x2="69.5" y2="716" stroke="#282828"/>
<line x1="138.5" y1="2.18557e-08" x2="138.5" y2="716" stroke="#282828"/>
<line x1="207.5" y1="2.18557e-08" x2="207.5" y2="716" stroke="#282828"/>
<line x1="276.5" y1="2.18557e-08" x2="276.5" y2="716" stroke="#282828"/>
<line x1="345.5" y1="2.18557e-08" x2="345.5" y2="716" stroke="#282828"/>
<line x1="414.5" y1="2.18557e-08" x2="414.5" y2="716" stroke="#282828"/>
<line x1="483.5" y1="2.18557e-08" x2="483.5" y2="716" stroke="#282828"/>
<line x1="552.5" y1="2.18557e-08" x2="552.5" y2="716" stroke="#282828"/>
<line x1="621.5" y1="2.18557e-08" x2="621.5" y2="716" stroke="#282828"/>
<line x1="690.5" y1="2.18557e-08" x2="690.5" y2="716" stroke="#282828"/>
<line x1="759.5" y1="2.18557e-08" x2="759.5" y2="716" stroke="#282828"/>
<line x1="828.5" y1="2.18557e-08" x2="828.5" y2="716" stroke="#282828"/>
<line x1="897.5" y1="2.18557e-08" x2="897.5" y2="716" stroke="#282828"/>
<line x1="966.5" y1="2.18557e-08" x2="966.5" y2="716" stroke="#282828"/>
<line x1="1035.5" y1="2.18557e-08" x2="1035.5" y2="716" stroke="#282828"/>
<line x1="1104.5" y1="2.18557e-08" x2="1104.5" y2="716" stroke="#282828"/>
<line x1="1173.5" y1="2.18557e-08" x2="1173.5" y2="716" stroke="#282828"/>
<line x1="1242" y1="66.0288" x2="-8.33384e-08" y2="66.0288" stroke="#282828"/>
<line x1="1242" y1="163.04" x2="-8.33384e-08" y2="163.04" stroke="#282828"/>
<line x1="1242" y1="259.741" x2="-8.33384e-08" y2="259.741" stroke="#282828"/>
<line x1="1242" y1="356.442" x2="-8.33384e-08" y2="356.442" stroke="#282828"/>
<line x1="1242" y1="453.144" x2="-8.33384e-08" y2="453.143" stroke="#282828"/>
<line x1="1242" y1="549.845" x2="-8.33384e-08" y2="549.845" stroke="#282828"/>
<line x1="1242" y1="646.546" x2="-8.33384e-08" y2="646.546" stroke="#282828"/>
</svg>
