<svg width="28" height="60" viewBox="0 0 28 60" fill="none" xmlns="http://www.w3.org/2000/svg">
<path d="M19.31 18.388C18.8133 15.5592 18.1112 12.9138 17.2391 10.1733L14.0002 0L10.7613 10.1733C9.88922 12.9138 9.18712 15.5592 8.69036 18.388C8.63296 18.7281 8.62192 19.0792 8.69036 19.417C8.77426 19.83 8.9553 20.1722 9.28648 20.4439C10.3617 21.3227 11.4082 22.2171 12.3576 23.1489L12.5209 26.4083H15.475L15.6384 23.1489C16.5878 22.2171 17.6343 21.3227 18.7095 20.4439C19.0407 20.1722 19.2217 19.8278 19.3056 19.417C19.3763 19.0792 19.3652 18.7281 19.3056 18.388H19.31ZM14.221 23.0275L14.0002 15.3274L13.7794 23.0275L13.1193 23.3852C13.1259 21.7158 13.1546 20.3754 13.2363 18.7568L13.8147 6.97582C13.8478 6.27802 13.8589 5.684 14.0024 5.07894C14.1459 5.684 14.1569 6.27802 14.1901 6.97582L14.7685 18.7568C14.848 20.3732 14.8789 21.7158 14.8855 23.3852L14.2254 23.0275H14.221ZM7.39437 45.7392C8.61309 47.0642 10.0901 48.1572 10.5229 50.2418L5.69434 47.4859C2.6387 45.7436 -0.516286 42.6587 0.176973 38.7281C1.62089 40.5631 3.20832 42.0846 4.96355 43.5773L7.39437 45.737V45.7392ZM7.19345 37.5665C9.0679 39.5473 11.0837 42.6676 10.5471 45.578C5.86213 42.842 -0.891617 37.7145 0.0974905 31.5358C2.81533 33.9759 4.77367 35.0072 7.19345 37.5687V37.5665ZM9.46973 31.9466C10.3043 33.4879 10.6553 35.2435 10.5516 36.9924C10.5339 37.3037 10.5052 37.6438 10.4655 38.0303C7.04553 35.5018 -0.288879 29.3806 0.803997 24.5092C4.34315 26.4105 7.64164 28.5569 9.46973 31.9466ZM12.5629 27.9519H15.4375V51.7147H12.5629V27.9519ZM17.5349 38.0303C17.4952 37.6438 17.4665 37.3037 17.4488 36.9924C17.3451 35.2435 17.6961 33.4879 18.5307 31.9466C20.3587 28.5569 23.6572 26.4105 27.1964 24.5092C28.2893 29.3806 20.9549 35.5018 17.5349 38.0303ZM27.8256 38.7281C28.5189 42.6587 25.3639 45.7414 22.3083 47.4859L17.4797 50.2418C17.9125 48.1572 19.3895 47.0642 20.6082 45.7392L23.039 43.5796C24.7965 42.0868 26.3839 40.5653 27.8256 38.7303V38.7281ZM21.8027 54.7488C23.8913 55.7624 25.9026 56.8047 27.6468 58.4145C22.9441 56.1356 18.4909 55.0447 14.0002 55.0646C9.50947 55.0447 5.05628 56.1334 0.3536 58.4145C2.09778 56.8047 4.10912 55.7624 6.19772 54.7488C8.72348 53.7264 11.2801 53.0904 14.0002 53.1236C16.718 53.0926 19.2747 53.7264 21.8027 54.7488ZM17.4532 45.578C16.9167 42.6676 18.9325 39.5473 20.8069 37.5665C23.2267 35.005 25.1851 33.9759 27.9029 31.5336C28.8898 37.7145 22.1383 42.842 17.4532 45.5758V45.578ZM15.3028 58.7634L14.0068 60L13.998 59.9912L13.9892 60L12.6932 58.7634C12.3267 58.4145 12.1765 57.6438 12.3863 57.147C12.6026 56.6302 13.2782 56.2902 13.9737 56.2703H14.0223C14.7177 56.288 15.3933 56.628 15.6097 57.147C15.8172 57.6438 15.6671 58.4145 15.3028 58.7634Z" fill="url(#paint0_linear_260_267)"/>
<defs>
<linearGradient id="paint0_linear_260_267" x1="0.000346069" y1="30.0011" x2="28" y2="30.0011" gradientUnits="userSpaceOnUse">
<stop stop-color="#F6E7A8"/>
<stop offset="1" stop-color="#CEA776"/>
</linearGradient>
</defs>
</svg>
