<svg width="81" height="16" viewBox="0 0 81 16" fill="none" xmlns="http://www.w3.org/2000/svg">
<path d="M1.83487 1.67123H1.76594C1.76594 1.27515 1.62097 0.936659 1.33003 0.654752C1.03909 0.372845 0.695427 0.232396 0.29804 0.232396H0.0233141L0 0.00404177H1.83386V1.67224L1.83487 1.67123ZM1.83487 14.3318V16H0.00101164V15.7716H0.299052C0.696439 15.7716 1.03604 15.6312 1.31888 15.3493C1.60171 15.0674 1.75073 14.7289 1.76594 14.3328H1.83487V14.3318ZM3.89784 0.00303114V15.999H1.76594V0.00303114H3.89784ZM10.1344 0.00303114V0.803284H3.82992V0.00303114H10.1344ZM9.10239 7.72668V8.50369H3.8289V7.72668H9.10239ZM3.82992 14.3318H3.89885C3.91406 14.7279 4.06308 15.0674 4.34591 15.3483C4.62875 15.6302 4.96835 15.7706 5.36574 15.7706H5.66378V15.999H3.82992V14.3308V14.3318ZM9.10239 6.03625V7.77316H7.49763V7.72769C7.89502 7.71254 8.22347 7.56805 8.48401 7.29321C8.74352 7.01939 8.87328 6.69201 8.87328 6.31007V6.03625H9.10239ZM9.10239 8.45823V10.1951H8.87328V9.89807C8.87328 9.51715 8.74352 9.18977 8.48401 8.91494C8.22347 8.64111 7.89502 8.50369 7.49763 8.50369V8.45823H9.10239ZM10.1344 0.734575V2.60789H9.90527V2.28759C9.90527 1.86119 9.76334 1.50755 9.48152 1.22463C9.19869 0.942721 8.84287 0.802273 8.41507 0.802273V0.733564H10.1344V0.734575ZM16.7369 1.67123H16.6679C16.6527 1.27515 16.5037 0.936659 16.2209 0.654752C15.9381 0.372845 15.5974 0.232396 15.2011 0.232396H14.903V0.00404177H16.7369V1.67224V1.67123ZM16.7369 14.3318V16H14.903V15.7716H15.2011C15.5984 15.7716 15.9381 15.6312 16.2209 15.3493C16.5037 15.0674 16.6527 14.7289 16.6679 14.3328H16.7369V14.3318ZM18.8009 0.00303114V15.999H16.669V0.00303114H18.8009ZM21.6434 0.00303114C22.3317 0.00303114 22.9734 0.0949793 23.5695 0.276855C24.1656 0.459741 24.6735 0.730533 25.0942 1.08822C25.5149 1.44591 25.8464 1.89151 26.0917 2.42501C26.336 2.95851 26.4587 3.58295 26.4587 4.29934C26.4587 5.01572 26.2985 5.68159 25.9771 6.34443C25.6558 7.00726 25.2087 7.55188 24.636 7.97828C24.0632 8.40467 23.386 8.63303 22.6075 8.66334C22.943 8.7856 23.2796 9.02103 23.6161 9.37164C23.9517 9.72226 24.2426 10.0648 24.4869 10.4003C24.4869 10.4154 24.5822 10.5599 24.7738 10.8347C24.9644 11.1086 25.2057 11.4481 25.4956 11.8512C25.7855 12.2554 26.0805 12.6545 26.3786 13.0506C26.6766 13.4467 26.9402 13.774 27.1693 14.0337C27.4744 14.3995 27.7765 14.7077 28.0746 14.9593C28.3726 15.2109 28.694 15.4089 29.0376 15.5534C29.3813 15.6989 29.7675 15.7706 30.1953 15.7706V15.999H28.5906C27.8566 15.999 27.2068 15.904 26.6421 15.713C26.0765 15.5231 25.5879 15.2644 25.1753 14.936C24.7627 14.6087 24.4109 14.254 24.121 13.8731C24.0601 13.767 23.9334 13.5689 23.7428 13.2789C23.5512 12.99 23.3374 12.6585 23.1011 12.2847C22.8639 11.9118 22.6308 11.542 22.4017 11.1763C22.1726 10.8105 21.9739 10.4942 21.8056 10.2275C21.6373 9.96072 21.5309 9.78996 21.4842 9.71317C21.2237 9.30193 20.9338 8.94727 20.6134 8.6502C20.2931 8.35314 19.9403 8.19754 19.5591 8.18137V7.95302C19.5743 7.95302 19.6848 7.95706 19.8916 7.96413C20.0974 7.97221 20.3387 7.96817 20.6134 7.95302C21.0108 7.93786 21.4346 7.86915 21.8857 7.74689C22.3368 7.62564 22.7494 7.3892 23.1234 7.03859C23.4975 6.68797 23.7773 6.17063 23.9608 5.48456C24.0064 5.33198 24.0409 5.14203 24.0642 4.91367C24.0875 4.68532 24.0906 4.44888 24.0754 4.20537C24.0602 3.15453 23.7966 2.33508 23.2846 1.74904C22.7727 1.16299 22.1036 0.853805 21.2784 0.823492C20.9267 0.79318 20.5597 0.782065 20.1775 0.789138C19.7953 0.797221 19.4669 0.800252 19.1911 0.800252H18.7329C18.7329 0.785096 18.7137 0.712346 18.6762 0.583012C18.6376 0.453678 18.5809 0.259678 18.5038 0H21.6444L21.6434 0.00303114ZM18.7319 14.3318H18.8009C18.8009 14.7279 18.9458 15.0674 19.2368 15.3483C19.5267 15.6302 19.8714 15.7706 20.2688 15.7706H20.5435V15.999H18.7319V14.3308V14.3318ZM34.2766 1.67123H34.2077C34.2077 1.27515 34.0627 0.936659 33.7718 0.654752C33.4809 0.372845 33.1372 0.232396 32.7398 0.232396H32.4651L32.4418 0.00404177H34.2756V1.67224L34.2766 1.67123ZM34.2766 14.3318V16H32.4428V15.7716H32.7408C33.1382 15.7716 33.4778 15.6312 33.7606 15.3493C34.0435 15.0674 34.1925 14.7289 34.2077 14.3328H34.2766V14.3318ZM36.3396 0.00303114V15.999H34.2077V0.00303114H36.3396ZM42.5761 0.00303114V0.803284H36.2717V0.00303114H42.5761ZM41.5442 7.72668V8.50369H36.2707V7.72668H41.5442ZM42.4849 15.1997L42.6684 16H36.2717V15.1997H42.4849ZM43.9751 11.9775L42.7373 16H38.7016L39.5268 15.1997C40.3216 15.1997 40.9866 15.0664 41.5219 14.7996C42.0571 14.5329 42.5001 14.156 42.8519 13.669C43.2036 13.1819 43.5017 12.6181 43.746 11.9775H43.9751ZM41.5442 6.03625V7.77316H39.9394V7.72769C40.3368 7.71254 40.6652 7.56805 40.9248 7.29321C41.1843 7.01939 41.315 6.69201 41.315 6.31007V6.03625H41.5442ZM41.5442 8.45823V10.1951H41.315V9.89807C41.315 9.51715 41.1853 9.18977 40.9248 8.91494C40.6642 8.64111 40.3358 8.50369 39.9394 8.50369V8.45823H41.5442ZM42.5761 0.734575V2.83726H42.347V2.47149C42.347 1.99962 42.1899 1.60354 41.8767 1.28323C41.5634 0.96293 41.162 0.796211 40.6733 0.780044V0.734575H42.5761ZM51.7008 1.64901L49.133 1.5803C48.9191 1.22968 48.6059 0.917461 48.1933 0.643637C47.7807 0.369813 47.3296 0.232396 46.841 0.232396H46.5196V0.00404177H52.8018V0.232396H52.5037C52.1672 0.232396 51.9107 0.389011 51.7353 0.701231C51.5589 1.01345 51.5478 1.32971 51.7008 1.65002V1.64901ZM50.829 0.0262704L55.3919 8.41276L53.6492 9.05235L48.2156 0.0262704H50.829ZM53.558 14.3318V16H51.7465V15.7716H52.0445C52.4419 15.7716 52.7815 15.6312 53.0643 15.3493C53.3472 15.0674 53.4962 14.7289 53.5114 14.3328H53.557L53.558 14.3318ZM55.6443 8.64111V15.999H53.5124V8.64111H55.6443ZM59.5877 0.0262704H61.1236L55.4608 9.12106L54.5211 8.86947L59.5877 0.0252605V0.0262704ZM55.5753 14.3318H55.6443C55.6443 14.7279 55.7893 15.0674 56.0802 15.3483C56.3701 15.6302 56.7148 15.7706 57.1122 15.7706H57.3869V15.999H55.5753V14.3308V14.3318ZM58.648 1.64901C58.7859 1.43581 58.8234 1.21857 58.7626 0.997284C58.7017 0.777012 58.5862 0.594126 58.4189 0.448626C58.2506 0.304136 58.06 0.231386 57.8461 0.231386H57.5714V0.00303114H62.7993V0.231386H62.4779C62.0035 0.231386 61.5605 0.368803 61.1479 0.642627C60.7353 0.916451 60.4058 1.22968 60.1615 1.57929L58.648 1.64799V1.64901ZM67.5426 1.67123H67.4736C67.4584 1.27515 67.3094 0.936659 67.0266 0.654752C66.7437 0.372845 66.4041 0.232396 66.0068 0.232396H65.7087V0.00404177H67.5426V1.67224V1.67123ZM67.5426 14.3318V16H65.7087V15.7716H66.0068C66.4041 15.7716 66.7437 15.6312 67.0266 15.3493C67.3094 15.0674 67.4584 14.7289 67.4736 14.3328H67.5426V14.3318ZM69.6066 0.00303114V15.999H67.4747V0.00303114H69.6066ZM72.4491 0.00303114C73.1364 0.00303114 73.7791 0.0949793 74.3752 0.276855C74.9713 0.45873 75.4792 0.730533 75.8999 1.08822C76.3196 1.44591 76.6521 1.89151 76.8974 2.42501C77.1417 2.95851 77.2644 3.58295 77.2644 4.29934C77.2644 5.01572 77.1042 5.68159 76.7828 6.34443C76.4615 7.00726 76.0144 7.55188 75.4417 7.97828C74.8689 8.40467 74.1917 8.63303 73.4121 8.66334C73.7477 8.7856 74.0843 9.02103 74.4208 9.37164C74.7564 9.72226 75.0473 10.0648 75.2916 10.4003C75.2916 10.4154 75.3869 10.5599 75.5785 10.8347C75.7691 11.1086 76.0104 11.4481 76.3003 11.8512C76.5902 12.2554 76.8852 12.6545 77.1833 13.0506C77.4813 13.4467 77.7449 13.774 77.974 14.0337C78.2791 14.3995 78.5812 14.7077 78.8793 14.9593C79.1773 15.2109 79.4986 15.4089 79.8423 15.5534C80.186 15.6989 80.5722 15.7706 81 15.7706V15.999H79.3952C78.6613 15.999 78.0115 15.904 77.4468 15.713C76.8812 15.5231 76.3925 15.2644 75.9799 14.936C75.5674 14.6087 75.2156 14.254 74.9257 13.8731C74.8648 13.767 74.7381 13.5689 74.5475 13.2789C74.3559 12.99 74.142 12.6585 73.9058 12.2847C73.6686 11.9118 73.4355 11.542 73.2064 11.1763C72.9772 10.8105 72.7785 10.4942 72.6103 10.2275C72.442 9.96072 72.3356 9.78996 72.2889 9.71317C71.5793 8.58453 69.6704 8.84623 69.2893 8.83107V7.95403C69.3045 7.95403 70.4895 7.95807 70.6963 7.96514C70.9021 7.97322 71.1434 7.96918 71.4181 7.95403C71.8155 7.93887 72.2392 7.87016 72.6904 7.7479C73.1415 7.62665 73.5541 7.39021 73.9281 7.0396C74.3022 6.68898 74.582 6.17165 74.7655 5.48557C74.8111 5.333 74.8456 5.14304 74.8689 4.91468C74.8922 4.68633 74.8952 4.44989 74.88 4.20638C74.8648 3.15554 74.6013 2.33609 74.0893 1.75005C73.5774 1.164 72.9083 0.854815 72.0831 0.824502C71.7314 0.79419 71.3644 0.783075 70.9822 0.790148C70.6 0.798232 70.2716 0.801263 69.9968 0.801263H69.5386C69.5386 0.786107 69.5194 0.713356 69.4819 0.584023C69.4433 0.454689 69.3866 0.260688 69.3095 0.00100986H72.4501L72.4491 0.00303114ZM69.5376 14.3318H69.6066C69.6066 14.7279 69.7515 15.0674 70.0425 15.3483C70.3324 15.6302 70.6761 15.7706 71.0745 15.7706H71.3492V15.999H69.5376V14.3308V14.3318Z" fill="white"/>
</svg>
