<svg width="54" height="54" viewBox="0 0 54 54" fill="none" xmlns="http://www.w3.org/2000/svg">
<path d="M53.8522 7.96897L54 5.7046L48.5839 5.35889L48.2339 0L45.9455 0.146241L46.332 6.06596L44.6727 7.70778L44.416 3.77758L42.1275 3.92382L42.514 9.84365L41.094 11.2486C36.7303 7.42015 30.9934 5.09143 24.716 5.09143C11.0877 5.09143 0 16.0614 0 29.5455C0 43.0296 11.0877 54 24.716 54C38.3442 54 49.4308 43.0295 49.4308 29.5455C49.4308 23.0869 46.8861 17.2061 42.738 12.8303L44.209 11.3747L50.0343 11.7465L50.1821 9.48218L46.3678 9.23874L48.0269 7.59714L53.8522 7.96897ZM47.1378 29.5455C47.1378 41.7789 37.079 51.7313 24.716 51.7313C12.3519 51.7313 2.29302 41.7789 2.29302 29.5455C2.29302 17.3126 12.3519 7.36031 24.716 7.36031C30.3608 7.36031 35.5245 9.43589 39.4704 12.8552L36.2279 16.0635C33.1179 13.4596 29.0993 11.8867 24.716 11.8867C14.8745 11.8867 6.86792 19.8085 6.86792 29.5455C6.86792 39.283 14.8745 47.2049 24.716 47.2049C34.5565 47.2049 42.563 39.2831 42.563 29.5455C42.563 24.9605 40.7873 20.7784 37.8811 17.636L41.1163 14.435C44.8496 18.3991 47.1378 23.7125 47.1378 29.5455ZM24.6968 30.6809L31.5715 23.8788C32.8703 25.4146 33.6539 27.3908 33.6539 29.5454C33.6539 34.4219 29.6446 38.3895 24.716 38.3895C19.7873 38.3895 15.7768 34.4219 15.7768 29.5454C15.7768 24.6688 19.7873 20.7018 24.716 20.7018C26.6416 20.7018 28.4254 21.3094 29.8861 22.3383L23.0757 29.0768L24.6968 30.6809ZM31.5261 20.7156C29.6355 19.2847 27.2745 18.4332 24.716 18.4332C18.5221 18.4332 13.4838 23.4184 13.4838 29.5455C13.4838 35.6733 18.5221 40.6584 24.716 40.6584C30.9086 40.6584 35.9469 35.6733 35.9469 29.5455C35.9469 26.7654 34.9096 24.2205 33.1979 22.2697L36.2587 19.2412C38.7504 21.9713 40.2699 25.586 40.2699 29.5455C40.2699 38.0318 33.2922 44.9362 24.7159 44.9362C16.1383 44.9362 9.16082 38.0319 9.16082 29.5455C9.16082 21.0593 16.1384 14.1555 24.7159 14.1555C28.467 14.1555 31.9123 15.4763 34.6017 17.6724L31.5261 20.7156Z" fill="#D2AD7A"/>
</svg>
