<svg width="39" height="49" viewBox="0 0 39 49" fill="none" xmlns="http://www.w3.org/2000/svg">
<path d="M38 2H28.5V1C28.5 0.4477 28.0523 0 27.5 0H11.5C10.9477 0 10.5 0.4477 10.5 1V2H1C0.4477 2 0 2.4478 0 3V48C0 48.5522 0.4477 49 1 49H38C38.5523 49 39 48.5522 39 48V3C39 2.4478 38.5523 2 38 2ZM25.5 7V5H12.5V2H26.5V6C26.5 6.5522 26.9477 7 27.5 7H29V8.5H10V7H25.5ZM9 10.5H30C30.5523 10.5 31 10.0522 31 9.5V9H33V43H6V9H8V9.5C8 10.0522 8.4477 10.5 9 10.5ZM37 47H2V4H10.5V5H10C8.8972 5 8 5.8972 8 7H5C4.4477 7 4 7.4478 4 8V44C4 44.5522 4.4477 45 5 45H34C34.5523 45 35 44.5522 35 44V8C35 7.4478 34.5523 7 34 7H31C31 5.8972 30.1028 5 29 5H28.5V4H37V47Z" fill="#D2AD7A"/>
<path d="M30.5 14.5H12.5V16.5H30.5V14.5Z" fill="#D2AD7A"/>
<path d="M30.5 18.5H8.5V20.5H30.5V18.5Z" fill="#D2AD7A"/>
<path d="M30.5 34.5H8.5V36.5H30.5V34.5Z" fill="#D2AD7A"/>
<path d="M25 38.5H8.5V40.5H25V38.5Z" fill="#D2AD7A"/>
<path d="M30.5 22.5H19.5V24.5H30.5V22.5Z" fill="#D2AD7A"/>
<path d="M30.5 26.5H19.5V28.5H30.5V26.5Z" fill="#D2AD7A"/>
<path d="M30.5 30.5H19.5V32.5H30.5V30.5Z" fill="#D2AD7A"/>
<path d="M9.5 32.5H17C17.5523 32.5 18 32.0522 18 31.5V23C18 22.4477 17.5523 22 17 22H9.5C8.9477 22 8.5 22.4477 8.5 23V31.5C8.5 32.0522 8.9477 32.5 9.5 32.5ZM10.5 24H16V30.5H10.5V24Z" fill="#D2AD7A"/>
</svg>
