<svg width="49" height="42" viewBox="0 0 49 42" fill="none" xmlns="http://www.w3.org/2000/svg">
<path d="M42.3182 4.47853H46.7727V11.0526H2.22727V4.47853H6.68182V2.268H0V42H49V2.268H42.3182V4.47853ZM46.7727 39.7895H2.22727V13.3206H46.7727V39.7895ZM13.3636 4.47853V2.268H35.6364V4.47853H13.3636ZM8.90909 0H11.1364V6.63158H8.90909V0ZM37.8636 0H40.0909V6.63158H37.8636V0ZM18.2837 33.8409L24.5 29.3558L30.7163 33.8387L28.342 26.586L34.5561 22.1053H26.8743L24.5 14.8525L22.1257 22.1053H14.4416L20.658 26.5882L18.2837 33.8409ZM23.7427 24.3158L24.5 22.0036L25.2573 24.3158H27.7006L25.7228 25.7438L26.48 28.0516L24.5 26.6258L22.52 28.0516L23.2772 25.7438L21.2972 24.3158H23.7427Z" fill="#D2AD7A"/>
</svg>
