<svg width="46" height="46" viewBox="0 0 46 46" fill="none" xmlns="http://www.w3.org/2000/svg">
<path d="M44.1224 2.81633H38.0204V0.938775C38.0204 0.42029 37.6001 0 37.0816 0H33.3265C32.808 0 32.3878 0.42029 32.3878 0.938775V2.81633H25.8163V0.938775C25.8163 0.42029 25.396 0 24.8776 0H21.1224C20.604 0 20.1837 0.42029 20.1837 0.938775V2.81633H13.6122V0.938775C13.6122 0.42029 13.192 0 12.6735 0H8.91837C8.39988 0 7.97959 0.42029 7.97959 0.938775V2.81633H1.87755C0.842269 2.81633 0 3.6586 0 4.69388V44.1224C0 45.1577 0.842269 46 1.87755 46H44.1224C45.1577 46 46 45.1577 46 44.1224V4.69388C46 3.6586 45.1577 2.81633 44.1224 2.81633ZM34.2653 1.87755H36.1429V8.44898H34.2653V1.87755ZM22.0612 1.87755H23.9388V8.44898H22.0612V1.87755ZM9.85714 1.87755H11.7347V8.44898H9.85714V1.87755ZM44.1224 44.1224H1.87755V15.0204H44.1224V44.1224ZM44.1224 13.1429H1.87755V4.69388H7.97959V9.38776C7.97959 9.90624 8.39988 10.3265 8.91837 10.3265H12.6735C13.192 10.3265 13.6122 9.90624 13.6122 9.38776V4.69388H20.1837V9.38776C20.1837 9.90624 20.604 10.3265 21.1224 10.3265H24.8776C25.396 10.3265 25.8163 9.90624 25.8163 9.38776V4.69388H32.3878V9.38776C32.3878 9.90624 32.808 10.3265 33.3265 10.3265H37.0816C37.6001 10.3265 38.0204 9.90624 38.0204 9.38776V4.69388H44.1224V13.1429Z" fill="#D2AD7A"/>
<path d="M4.69388 42.7143H10.3265C10.845 42.7143 11.2653 42.294 11.2653 41.7755V39.898H14.0816V41.7755C14.0816 42.294 14.5019 42.7143 15.0204 42.7143H20.6531C21.1715 42.7143 21.5918 42.294 21.5918 41.7755V36.1429C21.5918 35.6245 21.1715 35.2041 20.6531 35.2041H15.0204C14.5019 35.2041 14.0816 35.6245 14.0816 36.1429V38.0204H11.2653V36.1429C11.2653 35.6245 10.845 35.2041 10.3265 35.2041H8.44898V33.3265H10.3265C10.845 33.3265 11.2653 32.9062 11.2653 32.3878V30.5102H14.0816V32.3878C14.0816 32.9062 14.5019 33.3265 15.0204 33.3265H20.6531C21.1715 33.3265 21.5918 32.9062 21.5918 32.3878V30.5102H24.4082V32.3878C24.4082 32.9062 24.8285 33.3265 25.3469 33.3265H30.9796C31.4981 33.3265 31.9184 32.9062 31.9184 32.3878V30.5102H34.7347V32.3878C34.7347 32.9062 35.155 33.3265 35.6735 33.3265H41.3061C41.8246 33.3265 42.2449 32.9062 42.2449 32.3878V26.7551C42.2449 26.2367 41.8246 25.8163 41.3061 25.8163H39.4286V23.9388H41.3061C41.8246 23.9388 42.2449 23.5185 42.2449 23V17.3673C42.2449 16.8489 41.8246 16.4286 41.3061 16.4286H35.6735C35.155 16.4286 34.7347 16.8489 34.7347 17.3673V19.2449H31.9184V17.3673C31.9184 16.8489 31.4981 16.4286 30.9796 16.4286H25.3469C24.8285 16.4286 24.4082 16.8489 24.4082 17.3673V19.2449H21.5918V17.3673C21.5918 16.8489 21.1715 16.4286 20.6531 16.4286H15.0204C14.5019 16.4286 14.0816 16.8489 14.0816 17.3673V23C14.0816 23.5185 14.5019 23.9388 15.0204 23.9388H20.6531C21.1715 23.9388 21.5918 23.5185 21.5918 23V21.1224H24.4082V23C24.4082 23.5185 24.8285 23.9388 25.3469 23.9388H30.9796C31.4981 23.9388 31.9184 23.5185 31.9184 23V21.1224H34.7347V23C34.7347 23.5185 35.155 23.9388 35.6735 23.9388H37.551V25.8163H35.6735C35.155 25.8163 34.7347 26.2367 34.7347 26.7551V28.6327H31.9184V26.7551C31.9184 26.2367 31.4981 25.8163 30.9796 25.8163H25.3469C24.8285 25.8163 24.4082 26.2367 24.4082 26.7551V28.6327H21.5918V26.7551C21.5918 26.2367 21.1715 25.8163 20.6531 25.8163H15.0204C14.5019 25.8163 14.0816 26.2367 14.0816 26.7551V28.6327H11.2653V26.7551C11.2653 26.2367 10.845 25.8163 10.3265 25.8163H4.69388C4.17539 25.8163 3.7551 26.2367 3.7551 26.7551V32.3878C3.7551 32.9062 4.17539 33.3265 4.69388 33.3265H6.57143V35.2041H4.69388C4.17539 35.2041 3.7551 35.6245 3.7551 36.1429V41.7755C3.7551 42.294 4.17539 42.7143 4.69388 42.7143ZM15.9592 37.0816H19.7143V40.8367H15.9592V37.0816ZM19.7143 22.0612H15.9592V18.3061H19.7143V22.0612ZM30.0408 22.0612H26.2857V18.3061H30.0408V22.0612ZM36.6122 22.0612V18.3061H40.3673V22.0612H36.6122ZM36.6122 27.6939H40.3673V31.449H36.6122V27.6939ZM26.2857 27.6939H30.0408V31.449H26.2857V27.6939ZM15.9592 27.6939H19.7143V31.449H15.9592V27.6939ZM5.63265 31.449V27.6939H9.38776V31.449H5.63265ZM5.63265 37.0816H9.38776V40.8367H5.63265V37.0816Z" fill="#D2AD7A"/>
<path d="M30.9796 35.2041H25.3469C24.8285 35.2041 24.4082 35.6245 24.4082 36.1429V41.7755C24.4082 42.294 24.8285 42.7143 25.3469 42.7143H30.9796C31.4981 42.7143 31.9184 42.294 31.9184 41.7755V36.1429C31.9184 35.6245 31.4981 35.2041 30.9796 35.2041ZM30.0408 40.8367H26.2857V37.0816H30.0408V40.8367Z" fill="#D2AD7A"/>
</svg>
