<svg width="43" height="53" viewBox="0 0 43 53" fill="none" xmlns="http://www.w3.org/2000/svg">
<path d="M26.0097 0H19.1125C14.6068 0 10.3391 1.84377 7.09565 5.19156C3.9349 8.45412 2.12214 12.8728 2.12214 17.3147V23.6946L0.0208788 34.4021C-0.0422524 34.7235 0.0394534 35.0568 0.243341 35.3103C0.447229 35.5638 0.751933 35.7108 1.0736 35.7108H4.95789C5.496 36.2007 5.51071 36.834 5.41731 38.1585C5.2875 39.9969 5.09145 42.775 9.19551 44.296C9.31308 44.3395 9.4373 44.3618 9.56238 44.3618H21.2221V53H23.3694V43.2677C23.3694 42.6634 22.8886 42.1735 22.2958 42.1735H9.75671C7.35333 41.2292 7.43589 40.0619 7.55915 38.3155C7.65835 36.9095 7.79428 34.984 5.91366 33.7063C5.73726 33.5865 5.53004 33.5225 5.3181 33.5225H2.38325L4.24852 24.0175C4.26237 23.9468 4.26935 23.8751 4.26935 23.803V17.3147C4.26946 9.11532 11.0667 2.18831 19.1125 2.18831H26.0097C34.1941 2.18831 40.8527 8.97395 40.8527 17.3147V52.9999H43V17.3147C43 7.76731 35.3782 0 26.0097 0Z" fill="#D2AD7A"/>
<path d="M36.0902 16.7613H33.6368L35.2166 15.1454C35.6346 14.7179 35.634 14.0262 35.2151 13.5995L30.7158 9.01476C30.5145 8.80961 30.2414 8.69428 29.9566 8.69428C29.6719 8.69428 29.3989 8.80961 29.1976 9.01487L27.0834 11.1697V8.12302C27.0834 7.51872 26.6026 7.02887 26.0098 7.02887H19.6431C19.0501 7.02887 18.5694 7.51872 18.5694 8.12302V11.1699L16.4541 9.01454C16.0348 8.58738 15.355 8.58728 14.9357 9.01465L10.4375 13.5994C10.0188 14.0261 10.0181 14.7178 10.4361 15.1452L12.0159 16.7611H9.56249C8.96951 16.7611 8.48883 17.2509 8.48883 17.8552V24.3434C8.48883 24.9477 8.96951 25.4375 9.56249 25.4375H12.8848C12.903 25.4864 12.9214 25.535 12.9402 25.5831L10.4376 28.1326C10.2362 28.3378 10.123 28.616 10.123 28.9063C10.1229 29.1965 10.2361 29.4749 10.4374 29.6801L14.9356 34.2654C15.3541 34.6921 16.033 34.6929 16.4526 34.2669L18.5693 32.1179V35.157C18.5693 35.7613 19.05 36.2512 19.643 36.2512H26.0097C26.6025 36.2512 27.0833 35.7613 27.0833 35.157V32.1182L29.1989 34.2667C29.6183 34.6929 30.2972 34.6922 30.7159 34.2654L35.2152 29.6801C35.6345 29.2528 35.6345 28.56 35.2152 28.1328L32.7128 25.5826C32.7314 25.5346 32.7498 25.4862 32.7678 25.4375H36.0901C36.683 25.4375 37.1638 24.9477 37.1638 24.3434V17.8552C37.1639 17.251 36.6831 16.7613 36.0902 16.7613ZM31.994 23.2494C31.5166 23.2494 31.0964 23.5708 30.963 24.038C30.8268 24.5149 30.6662 24.9396 30.4718 25.3362C30.2653 25.7573 30.3465 26.2659 30.6731 26.5989L32.9378 28.9067L29.9556 31.9459L27.6909 29.646C27.3723 29.3224 26.8896 29.2354 26.4816 29.4282C26.2113 29.5559 25.9278 29.6755 25.6389 29.7838C25.2165 29.9422 24.936 30.3521 24.936 30.8107V34.0632H20.7166V30.8107C20.7166 30.3521 20.4361 29.9422 20.0138 29.7838C19.7249 29.6755 19.4413 29.5559 19.1711 29.4282C18.7631 29.2354 18.2804 29.3223 17.9619 29.6459L15.6964 31.9459L12.7151 28.9069L14.9805 26.599C15.3077 26.2656 15.3886 25.7559 15.1811 25.3344C14.9874 24.9411 14.8261 24.5163 14.688 24.036C14.554 23.5698 14.1343 23.2494 13.6576 23.2494H10.6361V18.9496H14.0297C14.4744 18.9496 14.8729 18.6703 15.0321 18.2472C15.0439 18.2157 15.0692 18.1635 15.0936 18.1128C15.1271 18.0433 15.165 17.9645 15.2017 17.8744C15.3679 17.4661 15.2767 16.996 14.9705 16.6828L12.7136 14.3744L15.6949 11.3357L17.9605 13.6441C18.2873 13.977 18.7865 14.0596 19.1997 13.8491C19.4379 13.7277 19.7037 13.6127 20.0123 13.4975C20.4353 13.3396 20.7166 12.9293 20.7166 12.4701V9.21718H24.936V12.4702C24.936 12.9293 25.2173 13.3396 25.6404 13.4976C25.949 13.6128 26.2148 13.7278 26.453 13.8492C26.8664 14.0599 27.3655 13.9771 27.6922 13.6441L29.9569 11.3359L32.9389 14.3747L30.682 16.6831C30.3758 16.9962 30.2846 17.4663 30.451 17.8746C30.4876 17.9648 30.5255 18.0435 30.5591 18.113C30.5835 18.1636 30.6087 18.216 30.6205 18.2474C30.7797 18.6705 31.1783 18.9498 31.623 18.9498H35.0165V23.2494H31.994Z" fill="#D2AD7A"/>
<path d="M22.8264 15.6798C19.894 15.6798 17.5083 18.111 17.5083 21.0994C17.5083 24.0879 19.894 26.5191 22.8264 26.5191C25.7589 26.5191 28.1444 24.0879 28.1444 21.0994C28.1444 18.111 25.7587 15.6798 22.8264 15.6798ZM22.8264 24.3308C21.078 24.3308 19.6556 22.8811 19.6556 21.0994C19.6556 19.3177 21.078 17.8681 22.8264 17.8681C24.5747 17.8681 25.9971 19.3177 25.9971 21.0994C25.9971 22.8811 24.5747 24.3308 22.8264 24.3308Z" fill="#D2AD7A"/>
</svg>
