<svg width="47" height="48" viewBox="0 0 47 48" fill="none" xmlns="http://www.w3.org/2000/svg">
<path d="M34.1818 9.46906V33.8028L37.3864 37.3798L40.5909 33.8028V9.46906H34.1818ZM34.1818 7.1018H40.5909V2.40211H34.1818V7.1018ZM42.7273 11.8363V34.2905C42.7273 34.6029 42.6158 34.9027 42.4172 35.1244L38.1444 39.8938C37.7267 40.3601 37.0461 40.3601 36.6283 39.8938L32.3556 35.1244C32.1569 34.9027 32.0455 34.6029 32.0455 34.2905V28.4072H30.9773C29.2075 28.4072 27.7727 26.8174 27.7727 24.8563V17.7545C27.7727 15.7934 29.2075 14.2036 30.9773 14.2036H32.0455V11.8363H10.6818V29.5908C10.6818 30.2445 10.2036 30.7744 9.61364 30.7744H8.54545C5.00581 30.7744 2.13636 33.954 2.13636 37.8762C2.13636 41.7985 5.00581 44.978 8.54545 44.978H44.8636V11.8363H42.7273ZM42.7273 9.46906H45.9318C46.5218 9.46906 47 9.99899 47 10.6527V46.1617C47 46.8154 46.5218 47.3453 45.9318 47.3453H8.54545C3.82593 47.3453 0 43.1059 0 37.8762V10.6527C0 4.76937 4.30417 0 9.61364 0C10.2036 0 10.6818 0.52993 10.6818 1.18363V9.46906H32.0455V1.21848C32.0455 0.564773 32.5237 0.0348427 33.1136 0.0348427H41.6591C42.249 0.0348427 42.7273 0.564773 42.7273 1.21848V9.46906ZM32.0455 16.5709H30.9773C30.3873 16.5709 29.9091 17.1008 29.9091 17.7545V24.8563C29.9091 25.51 30.3873 26.0399 30.9773 26.0399H32.0455V16.5709ZM2.13636 31.6129C3.7022 29.6471 5.99316 28.4072 8.54545 28.4072V2.45117C4.92187 3.02551 2.13636 6.47865 2.13636 10.6527V31.6129ZM16.0227 14.2036H22.4318C24.2016 14.2036 25.6364 15.7934 25.6364 17.7545V24.8563C25.6364 26.8174 24.2016 28.4072 22.4318 28.4072H16.0227C14.2529 28.4072 12.8182 26.8174 12.8182 24.8563V17.7545C12.8182 15.7934 14.2529 14.2036 16.0227 14.2036ZM16.0227 16.5709C15.4328 16.5709 14.9545 17.1008 14.9545 17.7545V24.8563C14.9545 25.51 15.4328 26.0399 16.0227 26.0399H22.4318C23.0218 26.0399 23.5 25.51 23.5 24.8563V17.7545C23.5 17.1008 23.0218 16.5709 22.4318 16.5709H16.0227ZM13.8864 35.509C13.2964 35.509 12.8182 34.979 12.8182 34.3253C12.8182 33.6716 13.2964 33.1417 13.8864 33.1417H28.8409C29.4309 33.1417 29.9091 33.6716 29.9091 34.3253C29.9091 34.979 29.4309 35.509 28.8409 35.509H13.8864ZM13.8864 40.2435C13.2964 40.2435 12.8182 39.7136 12.8182 39.0599C12.8182 38.4062 13.2964 37.8762 13.8864 37.8762H30.9773C31.5672 37.8762 32.0455 38.4062 32.0455 39.0599C32.0455 39.7136 31.5672 40.2435 30.9773 40.2435H13.8864Z" fill="#D2AD7A"/>
</svg>
